<svg viewBox="0 0 64 64" xmlns="http://www.w3.org/2000/svg">
  <!-- jet-black chamber -->
  <circle cx="32" cy="32" r="32" fill="#07040b" />
  <!-- the molten mass hanging from the top, its lower edge a chain of lobes -->
  <path d="M 4 16
           Q 6 7 14 3.6
           Q 22 0.6 32 0.6
           Q 42 0.6 50 3.6
           Q 58 7 60 16
           C 59 22 56 26.5 51.5 27.5
           C 48 28.3 46.5 25 43.5 25
           C 40.5 25 40.5 30.5 36 31.4
           C 31.5 32.3 30.5 26.5 27 26.5
           C 23.5 26.5 23.5 32 18.5 30.8
           C 13.5 29.6 8 24 4 16 Z"
        fill="none" stroke="#f1eaf8" stroke-width="1.9" stroke-linejoin="round" />
  <!-- violet echo line just inside the lower edge -->
  <path d="M 8 15
           C 12 21.5 15.5 25.5 19 26.5
           C 23 27.5 23.5 22.5 27 22.5
           C 30.5 22.5 31.5 27.8 36 27
           C 40 26.2 40.5 21 43.5 21
           C 46.5 21 48.5 23.8 51 23
           C 53.5 22 55.5 19 56.5 15"
        fill="none" stroke="#a34dff" stroke-width="1.3" opacity="0.8" />
  <!-- heavy drops swelling straight out of the edge -->
  <path d="M 20 30.5 C 22.4 33 22.9 35.6 20 38.6 C 17.1 35.6 17.6 33 20 30.5 Z" fill="#a34dff" />
  <path d="M 36 31.5 C 37.8 33.4 38.2 35.4 36 37.6 C 33.8 35.4 34.2 33.4 36 31.5 Z" fill="#d9b3ff" />
  <path d="M 47.5 27.5 C 49.7 30 50.2 32.6 47.5 35.4 C 44.8 32.6 45.3 30 47.5 27.5 Z" fill="#a34dff" opacity="0.9" />
  <!-- one drop caught mid-fall -->
  <circle cx="36" cy="45" r="1.4" fill="#d9b3ff" opacity="0.85" />
  <!-- the luminous pool -->
  <path d="M 6 55 C 12 53.4 18 56.4 25 55 C 32 53.6 38 56.6 45 55.2 C 51 54 55 56 60 54.6"
        fill="none" stroke="#f1eaf8" stroke-width="1.4" stroke-linecap="round" />
  <path d="M 8 58 C 15 56.6 22 59 32 57.6 C 42 56.2 50 58.4 58 57"
        fill="none" stroke="#a34dff" stroke-width="1.8" opacity="0.55" stroke-linecap="round" />
</svg>
