<svg viewBox="0 0 64 64" xmlns="http://www.w3.org/2000/svg">
  <!-- jet-black chamber -->
  <circle cx="32" cy="32" r="32" fill="#07040b" />
  <!-- the gravity cascade, miniature: bubble letter up top... -->
  <path d="M 13 30
           C 10.5 24.5 10 15.5 15 10.5
           C 18 7.5 21.5 6 24.5 7.5
           C 28 9.5 30.5 12 32 14
           C 33.5 12 36 9.5 39.5 7.5
           C 42.5 6 46 7.5 49 10.5
           C 54 15.5 53.5 24.5 51 30
           C 47 32 43.5 31.2 42 29
           C 40.5 26 40 21.5 39.5 18.5
           C 37 21.5 34 25 32 26.5
           C 30 25 27 21.5 24.5 18.5
           C 24 21.5 23.5 26 22 29
           C 20.5 31.2 17 32 13 30 Z"
        fill="none" stroke="#f1eaf8" stroke-width="1.9" stroke-linejoin="round" />
  <!-- ...its inner echo line, violet... -->
  <path d="M 13 30
           C 10.5 24.5 10 15.5 15 10.5
           C 18 7.5 21.5 6 24.5 7.5
           C 28 9.5 30.5 12 32 14
           C 33.5 12 36 9.5 39.5 7.5
           C 42.5 6 46 7.5 49 10.5
           C 54 15.5 53.5 24.5 51 30
           C 47 32 43.5 31.2 42 29
           C 40.5 26 40 21.5 39.5 18.5
           C 37 21.5 34 25 32 26.5
           C 30 25 27 21.5 24.5 18.5
           C 24 21.5 23.5 26 22 29
           C 20.5 31.2 17 32 13 30 Z"
        transform="translate(32 19) scale(0.72) translate(-32 -19)"
        fill="none" stroke="#a34dff" stroke-width="1.3" opacity="0.8" />
  <!-- ...viscous drips falling from its lower edge... -->
  <g stroke="#d9b3ff" stroke-width="1.2" stroke-linecap="round" fill="none">
    <path d="M 20 32 C 20.6 36 19.6 39 20.2 42.5" />
    <path d="M 32 29 C 32.5 32 31.7 34.5 32.2 36.5" />
    <path d="M 44 31.5 C 44.4 35.5 43.6 40 44.1 45.5" />
  </g>
  <!-- ...swelling into glowing drops... -->
  <path d="M 20.2 43 C 22.3 45 22.7 47 20.2 49.3 C 17.7 47 18.1 45 20.2 43 Z" fill="#a34dff" />
  <path d="M 32.2 37 C 33.9 38.6 34.2 40.2 32.2 42 C 30.2 40.2 30.5 38.6 32.2 37 Z" fill="#d9b3ff" />
  <path d="M 44.1 46 C 45.8 47.6 46.1 49.2 44.1 51 C 42.1 49.2 42.4 47.6 44.1 46 Z" fill="#a34dff" opacity="0.9" />
  <!-- ...into the luminous pool -->
  <path d="M 6 55 C 12 53.4 18 56.4 25 55 C 32 53.6 38 56.6 45 55.2 C 51 54 55 56 60 54.6"
        fill="none" stroke="#f1eaf8" stroke-width="1.4" stroke-linecap="round" />
  <path d="M 8 58 C 15 56.6 22 59 32 57.6 C 42 56.2 50 58.4 58 57"
        fill="none" stroke="#a34dff" stroke-width="1.8" opacity="0.55" stroke-linecap="round" />
</svg>
